<svg id="Calque_1" data-name="Calque 1" xmlns="http://www.w3.org/2000/svg" viewBox="0 0 384 78"><defs><style>.cls-1{fill:#b4b4b4;}.cls-2{fill:#d92626;}.cls-3{fill:#f2cc0d;}.cls-4{fill:#380f8a;}.cls-5{fill:#8a0f8a;}</style></defs><g id="google-play-original-logo"><path class="cls-1" d="M377,33,370,51.12h-.22L362.33,33h-6.7l11.1,25.38-6.34,14.11h6.5L384,33ZM326.89,17.91h-6.2V59.77h6.2Zm-23.33,0H288.65V59.77h6.25V43.93h8.68a13.25,13.25,0,0,0,13.67-12.82,1.09,1.09,0,0,1,0-.18,13.29,13.29,0,0,0-13.53-13Zm.16,20.17H294.9V23.83h8.85a7.13,7.13,0,0,1,0,14.25Zm38.45-6a11.69,11.69,0,0,0-11.1,6.42l5.54,2.37a5.86,5.86,0,0,1,5.68-3,6,6,0,0,1,6.52,5.36v.46A13.54,13.54,0,0,0,342.36,42c-5.94,0-12,3.28-12,9.5,0,5.61,4.85,9.22,10.34,9.22a8.66,8.66,0,0,0,7.9-4.08h.24v3.23h6.06V43.76c0-7.44-5.54-11.57-12.68-11.57Zm-.73,23c-2,0-4.88-1.05-4.88-3.56,0-3.23,3.53-4.47,6.6-4.47a11,11,0,0,1,5.68,1.4,7.55,7.55,0,0,1-7.4,6.63ZM117.09,60.67A22.42,22.42,0,0,1,94.64,38.56a22.42,22.42,0,0,1,22.45-22.12,21.06,21.06,0,0,1,15.17,6.11L128,26.8a15.37,15.37,0,0,0-10.89-4.42,16.09,16.09,0,0,0,0,32.17,14.78,14.78,0,0,0,11.17-4.45,12.45,12.45,0,0,0,3.29-7.6H117.09V36.63h20.35a20,20,0,0,1,.31,3.78,20,20,0,0,1-5.23,14.25A20.23,20.23,0,0,1,117.09,60.67Zm52.13-14.25a14.06,14.06,0,1,1-28.09,1.16c0-.39,0-.77,0-1.16a14.06,14.06,0,1,1,28.09-1.16C169.23,45.65,169.23,46,169.22,46.42Zm-6.16,0a7.93,7.93,0,1,0-15.78-1.5,9.39,9.39,0,0,0,0,1.5,7.93,7.93,0,1,0,15.78,1.51A7.62,7.62,0,0,0,163.06,46.42Zm37.62,0a14,14,0,1,1-14-14.09A14.06,14.06,0,0,1,200.68,46.42Zm-6.12,0a7.93,7.93,0,1,0-15.79-1.5,9.39,9.39,0,0,0,0,1.5,7.93,7.93,0,1,0,15.79,1.51A9.52,9.52,0,0,0,194.56,46.42Zm36.83-13.37V58.63c0,10.5-6.22,14.82-13.55,14.82a13.6,13.6,0,0,1-12.64-8.31l5.37-2.38a7.88,7.88,0,0,0,7.1,5.06c4.73,0,7.62-2.92,7.62-8.36v-2h-.24a9.71,9.71,0,0,1-7.38,3.25,14.25,14.25,0,0,1,0-28.5,9.85,9.85,0,0,1,7.48,3.18h.23V33h6Zm-5.51,13.44a8,8,0,0,0-7.34-8.68h-.25a8.25,8.25,0,0,0-8,8.53.81.81,0,0,0,0,.16,8.18,8.18,0,0,0,7.77,8.57h.18a8,8,0,0,0,7.61-8.26C225.9,46.7,225.89,46.6,225.88,46.49ZM242.35,18V59.8H236.1V18ZM267,51.12l4.88,3.23A14.16,14.16,0,0,1,260,60.67a13.77,13.77,0,0,1-13.94-13.6c0-.22,0-.43,0-.65a13.06,13.06,0,0,1,25.44-5.18l.64,1.64-18.93,7.86a7.25,7.25,0,0,0,6.91,4.33A8.14,8.14,0,0,0,267,51.12ZM252,46l12.72-5.27a5.52,5.52,0,0,0-5.3-3A7.8,7.8,0,0,0,252,45.85.61.61,0,0,0,252,46Z"/><path class="cls-2" d="M32,37.3.28,70.7a8.61,8.61,0,0,0,10.63,6,8.42,8.42,0,0,0,2-.84L48.62,55.4Z"/><path class="cls-3" d="M64.14,31.62,48.69,22.74,31.3,38.06,48.76,55.35l15.33-8.79a8.44,8.44,0,0,0,0-14.94Z"/><path class="cls-4" d="M.28,7.32A8.47,8.47,0,0,0,0,9.5v59A8.94,8.94,0,0,0,.28,70.7L33.12,38.15Z"/><path class="cls-5" d="M32.27,39,48.69,22.74,13,2.21A8.72,8.72,0,0,0,8.59,1,8.63,8.63,0,0,0,.28,7.3Z"/></g></svg>