<svg xmlns="http://www.w3.org/2000/svg" xmlns:xlink="http://www.w3.org/1999/xlink" viewBox="0 0 3840 720"><defs><style>.cls-1{fill:#111;}.cls-2{fill:url(#Dégradé_sans_nom_4);}.cls-3{fill:url(#Dégradé_sans_nom_3);}.cls-4{fill:#25f4ee;}.cls-5{fill:url(#Dégradé_sans_nom_4-2);}.cls-6{fill:url(#Dégradé_sans_nom_4-3);}.cls-7{fill:url(#Dégradé_sans_nom_4-4);}.cls-8{fill:#fe2c55;}.cls-9{fill:url(#Dégradé_sans_nom_3-2);}.cls-10{fill:url(#Dégradé_sans_nom_3-3);}.cls-11{fill:url(#Dégradé_sans_nom_3-4);}</style><linearGradient id="Dégradé_sans_nom_4" x1="2507.59" y1="474.23" x2="2716.65" y2="474.23" gradientUnits="userSpaceOnUse"><stop offset="0" stop-color="blue"/><stop offset="1" stop-color="#0080ff"/></linearGradient><linearGradient id="Dégradé_sans_nom_3" x1="2744.92" y1="472.5" x2="2966.04" y2="472.5" gradientUnits="userSpaceOnUse"><stop offset="0" stop-color="red"/><stop offset="1" stop-color="#f90"/></linearGradient><linearGradient id="Dégradé_sans_nom_4-2" x1="440" y1="451.66" x2="688.03" y2="451.66" xlink:href="#Dégradé_sans_nom_4"/><linearGradient id="Dégradé_sans_nom_4-3" x1="612.87" y1="300.69" x2="879.73" y2="300.69" xlink:href="#Dégradé_sans_nom_4"/><linearGradient id="Dégradé_sans_nom_4-4" x1="952.13" y1="164.77" x2="1042" y2="164.77" xlink:href="#Dégradé_sans_nom_4"/><linearGradient id="Dégradé_sans_nom_3-2" x1="879.73" y1="83.94" x2="952.13" y2="83.94" xlink:href="#Dégradé_sans_nom_3"/><linearGradient id="Dégradé_sans_nom_3-3" x1="559.35" y1="421.65" x2="722.74" y2="421.65" xlink:href="#Dégradé_sans_nom_3"/><linearGradient id="Dégradé_sans_nom_3-4" x1="533.57" y1="455.78" x2="1076.48" y2="455.78" xlink:href="#Dégradé_sans_nom_3"/></defs><title>Carte de réseau social tt</title><g id="Carte_de_réseau_social" data-name="Carte de réseau social"><g id="TikTok"><g id="Texte"><polygon id="路径" class="cls-1" points="1524.63 286.23 1428.55 286.23 1428.55 677.18 1308.34 677.18 1308.34 286.23 1188.36 286.23 1188.13 179.06 1558.65 179.06 1524.63 286.23"/><polygon id="polygon7" class="cls-1" points="2510.47 286.23 2406.12 286.23 2406.12 677.18 2286.13 677.18 2286.13 286.23 2165.69 286.23 2165.46 179.06 2544.49 179.06 2510.47 286.23"/><polygon id="polygon9" class="cls-1" points="1700.01 677.18 1582.1 677.18 1581.18 337.51 1700.01 337.51 1700.01 677.18"/><polygon id="polygon11" class="cls-1" points="1865.73 409.72 1983.42 294.74 2125.01 294.74 1976.29 439.16 2142.94 677.18 2012.15 677.18 1900.9 511.83 1865.73 545.86 1865.73 677.18 1747.13 677.18 1747.13 177.68 1865.73 177.68 1865.73 409.72"/><polygon id="polygon13" class="cls-1" points="3124.18 409.72 3241.63 294.74 3383.22 294.74 3234.51 439.16 3400 677.18 3269.21 677.18 3158.2 511.83 3124.18 545.86 3124.18 677.18 3005.34 677.18 3004.19 177.68 3124.18 177.68 3124.18 409.72"/><ellipse id="椭圆形" class="cls-1" cx="1640.71" cy="238.85" rx="59.76" ry="59.79"/><path id="path16" class="cls-2" d="M2529.32,473.88a203.24,203.24,0,0,1,187.33-202.6H2699c-107.44,6.27-191.36,95.27-191.36,203S2591.51,670.91,2699,677.18h17.7A203.25,203.25,0,0,1,2529.32,473.88Z"/><path id="path18" class="cls-3" d="M2762.85,270.59h-17.93a203.3,203.3,0,0,1,0,405.21h17.93c112.22,0,203.19-91,203.19-203.3s-91-203.29-203.19-203.29Z"/><path id="形状" class="cls-1" d="M2730.67,572.77a98.89,98.89,0,1,1,98.84-98.89A98.86,98.86,0,0,1,2730.67,572.77Zm0-302.18c-112.22,0-203.19,91-203.19,203.29s91,203.3,203.19,203.3,203.19-91,203.19-203.3a203.23,203.23,0,0,0-203.19-203.29Z"/></g><g id="Icône"><g id="路径-7"><path class="cls-4" d="M688,283.55V255.5A205.78,205.78,0,0,0,658.61,253a218.26,218.26,0,0,0-125,397.39A218,218,0,0,1,688,283.55Z"/><path class="cls-5" d="M688,283.55V255.5A205.78,205.78,0,0,0,658.61,253a218.26,218.26,0,0,0-125,397.39A218,218,0,0,1,688,283.55Z"/></g><g id="path841"><path class="cls-4" d="M693.32,601.37a99.76,99.76,0,0,0,99.52-95.43V30.13h86.89A162.79,162.79,0,0,1,877.2,0H758.36V475.35a99.77,99.77,0,0,1-99.52,96.13,101.12,101.12,0,0,1-46-11.5A99.73,99.73,0,0,0,693.32,601.37Z"/><path class="cls-6" d="M693.32,601.37a99.76,99.76,0,0,0,99.52-95.43V30.13h86.89A162.79,162.79,0,0,1,877.2,0H758.36V475.35a99.77,99.77,0,0,1-99.52,96.13,101.12,101.12,0,0,1-46-11.5A99.73,99.73,0,0,0,693.32,601.37Z"/></g><g id="path843"><path class="cls-4" d="M1042,191.57V165.12A162.21,162.21,0,0,1,952.13,138,164.78,164.78,0,0,0,1042,191.57Z"/><path class="cls-7" d="M1042,191.57V165.12A162.21,162.21,0,0,1,952.13,138,164.78,164.78,0,0,0,1042,191.57Z"/></g><g id="path845"><path class="cls-8" d="M952.13,138A163.75,163.75,0,0,1,911.45,29.9H879.73A164.66,164.66,0,0,0,952.13,138Z"/><path class="cls-9" d="M952.13,138A163.75,163.75,0,0,1,911.45,29.9H879.73A164.66,164.66,0,0,0,952.13,138Z"/></g><g id="path847"><path class="cls-8" d="M658.61,371.86a99.82,99.82,0,0,0-46,188.12,99.58,99.58,0,0,1,80.68-158,104.51,104.51,0,0,1,29.42,4.6v-121a208.56,208.56,0,0,0-29.42-2.3H688v92A102.48,102.48,0,0,0,658.61,371.86Z"/><path class="cls-10" d="M658.61,371.86a99.82,99.82,0,0,0-46,188.12,99.58,99.58,0,0,1,80.68-158,104.51,104.51,0,0,1,29.42,4.6v-121a208.56,208.56,0,0,0-29.42-2.3H688v92A102.48,102.48,0,0,0,658.61,371.86Z"/></g><g id="path849"><path class="cls-8" d="M1042,191.57v92A281.9,281.9,0,0,1,877.2,230v241.7c-.26,120.61-98.05,218.24-218.59,218.24a216.22,216.22,0,0,1-125-39.55A218.12,218.12,0,0,0,911.45,501.8v-241a282.43,282.43,0,0,0,165,52.89V195.25A168.63,168.63,0,0,1,1042,191.57Z"/><path class="cls-11" d="M1042,191.57v92A281.9,281.9,0,0,1,877.2,230v241.7c-.26,120.61-98.05,218.24-218.59,218.24a216.22,216.22,0,0,1-125-39.55A218.12,218.12,0,0,0,911.45,501.8v-241a282.43,282.43,0,0,0,165,52.89V195.25A168.63,168.63,0,0,1,1042,191.57Z"/></g><path id="path851" class="cls-1" d="M877.2,471.67V230a281.91,281.91,0,0,0,165,52.89v-92a164.82,164.82,0,0,1-90.1-52.9A164.66,164.66,0,0,1,879.73,29.9H792.84v476a99.74,99.74,0,0,1-180.43,54.5,99.82,99.82,0,0,1,46-188.12,102.29,102.29,0,0,1,29.42,4.6v-92a218,218,0,0,0-154.46,368,216.2,216.2,0,0,0,125.27,37C779.15,689.91,876.94,592.28,877.2,471.67Z"/></g></g></g></svg>