<svg xmlns="http://www.w3.org/2000/svg" xmlns:xlink="http://www.w3.org/1999/xlink" viewBox="0 0 3840 720"><defs><style>.cls-1{fill:#111;}.cls-2{fill:url(#Dégradé_sans_nom_29);}.cls-3{fill:url(#Dégradé_sans_nom_24);}.cls-4{fill:#f5f5f5;}</style><linearGradient id="Dégradé_sans_nom_29" x1="565" x2="565" y2="720" gradientUnits="userSpaceOnUse"><stop offset="0" stop-color="#f90"/><stop offset="1" stop-color="red"/></linearGradient><linearGradient id="Dégradé_sans_nom_24" x1="205" y1="360" x2="925" y2="360" gradientUnits="userSpaceOnUse"><stop offset="0" stop-color="blue"/><stop offset="1" stop-color="#0080ff" stop-opacity="0"/></linearGradient></defs><title>Carte de réseau social insta</title><g id="Carte_de_réseau_social" data-name="Carte de réseau social"><g id="Instagram"><path id="Logo" class="cls-1" d="M1225.73,2.52c-52,21.75-109.14,83.18-127.19,160.29-22.86,97.7,72.27,139,80.07,125.47,9.18-15.92-17-21.3-22.45-72-7-65.47,23.49-138.63,61.82-170.73,7.13-6,6.79,2.33,6.79,17.69,0,27.45-1.52,273.93-1.52,325.37,0,69.6-2.88,91.58-8,113.3-5.24,22-13.65,36.89-7.28,42.61,7.13,6.41,37.55-8.83,55.17-33.39,21.12-29.47,28.51-64.85,29.84-103.27,1.6-46.32,1.53-119.81,1.6-161.73.07-38.45.65-151-.67-218.72-.33-16.6-46.4-34-68.15-24.92M3071.79,328.27c-1.67,36.18-9.69,64.47-19.64,84.42-19.26,38.62-59.22,50.61-76.19-4.91-9.25-30.26-9.68-80.81-3-123,6.77-43,25.66-75.52,57-72.59,30.87,2.9,45.31,42.64,41.91,116.12Zm-520.3,224.5c-.41,60.13-9.88,112.85-30.19,128.16-28.8,21.71-67.52,5.42-59.5-38.45,7.09-38.83,40.64-78.48,89.78-126.92,0,0,.1,11.05-.08,37.21Zm-7.86-224.85c-1.76,33-10.31,66.07-19.64,84.77-19.26,38.63-59.51,50.7-76.2-4.9-11.4-38-8.67-87.16-3-118.14,7.33-40.2,25.08-77.49,57-77.49,31,0,46.28,34,41.91,115.76Zm-301.41-.51c-1.89,34.91-8.71,64.09-19.64,85.28-19.79,38.36-58.93,50.52-76.2-4.9-12.44-40-8.2-94.47-3-123.91,7.69-43.68,26.92-74.65,57-71.72,30.85,3,45.85,42.63,41.91,115.26Zm1381.29,40.78c-7.54,0-11,7.76-13.83,20.84-9.88,45.46-20.26,55.73-33.64,55.73-15,0-28.39-22.51-31.85-67.58-2.71-35.43-2.28-100.67,1.19-165.56.71-13.33-3-26.53-38.76-39.52-15.4-5.59-37.78-13.81-48.93,13.07-31.49,76-43.81,136.25-46.71,160.75-.15,1.27-1.7,1.53-2-1.44-1.84-19.62-6-55.27-6.49-130.17-.1-14.62-3.19-27.06-19.34-37.24-10.47-6.61-42.28-18.3-53.73-4.4-9.93,11.38-21.42,42-33.36,78.26-9.7,29.49-16.46,49.43-16.46,49.43s.13-79.56.24-109.73c0-11.39-7.76-15.18-10.12-15.87-10.61-3.08-31.5-8.22-40.37-8.22-10.95,0-13.63,6.12-13.63,15,0,1.16-1.73,104.74-1.73,177.17,0,3.15,0,6.58,0,10.22-6.06,33.29-25.69,78.48-47,78.48s-31.46-18.89-31.46-105.24c0-50.37,1.51-72.27,2.26-108.7.43-21,1.26-37.1,1.21-40.76-.15-11.21-19.56-16.86-28.59-19s-16.95-2.92-23.11-2.57c-8.71.49-14.88,6.2-14.88,14.05,0,4.22,0,12.23,0,12.23-11.22-17.62-29.27-29.89-41.28-33.44-32.35-9.6-66.1-1.1-91.56,34.5-20.24,28.29-32.43,60.32-37.23,106.35-3.51,33.65-2.37,67.77,3.87,96.63-7.54,32.56-21.53,45.9-36.85,45.9-22.25,0-38.37-36.28-36.5-99,1.23-41.27,9.5-70.24,18.53-112.14,3.85-17.86.72-27.21-7.13-36.17-7.19-8.22-22.53-12.42-44.59-7.26-15.7,3.69-38.16,7.65-58.71,10.69a118.78,118.78,0,0,0,2.26-13.66c5.34-45.7-44.36-42-60.21-27.4-9.47,8.72-15.91,19-18.36,37.48-3.87,29.33,20.06,43.16,20.06,43.16-7.85,35.92-27.1,82.85-47,116.78-10.64,18.18-18.79,31.65-29.3,46q-.06-8-.09-16c-.24-75.53.77-135,1.21-156.4.43-21,1.28-36.67,1.23-40.32-.12-8.21-4.91-11.3-14.88-15.22a105.77,105.77,0,0,0-30.05-6.71c-13.65-1.07-21.87,6.17-21.66,14.72,0,1.61,0,11.53,0,11.53-11.22-17.62-29.27-29.89-41.28-33.44-32.34-9.6-66.1-1.09-91.56,34.5-20.23,28.29-33.48,68-37.23,106-3.5,35.44-2.85,65.55,1.92,90.92-5.15,25.4-19.94,52-36.66,52-21.37,0-33.54-18.9-33.54-105.24,0-50.37,1.52-72.28,2.26-108.7.43-21,1.27-37.11,1.22-40.76-.16-11.21-19.56-16.87-28.59-19-9.45-2.18-17.61-3-23.87-2.52-8.27.61-14.08,8-14.08,13.52V197.5c-11.22-17.62-29.27-29.89-41.28-33.44-32.34-9.6-65.91-.95-91.56,34.5-16.72,23.12-30.26,48.76-37.23,105.5a356.8,356.8,0,0,0-2.79,46.1c-6.67,40.76-36.12,87.73-60.22,87.73-14.1,0-27.53-27.32-27.53-85.57,0-77.58,4.81-188,5.62-198.68,0,0,30.44-.52,36.34-.59,15.19-.16,28.94.2,49.17-.84,10.14-.51,19.91-36.9,9.44-41.4-4.74-2-38.28-3.82-51.58-4.1-11.18-.26-42.3-2.56-42.3-2.56s2.79-73.32,3.44-81.06c.55-6.46-7.81-9.78-12.6-11.8-11.65-4.92-22.08-7.28-34.44-9.83-17.08-3.52-24.82-.07-26.34,14.33-2.27,21.85-3.45,85.87-3.45,85.87-12.53,0-55.34-2.45-67.87-2.45-11.65,0-24.22,50.05-8.12,50.67,18.53.71,50.81,1.33,72.21,2,0,0-1,112.28-1,146.94,0,3.69,0,7.24,0,10.68-11.78,61.35-53.27,94.49-53.27,94.49,8.91-40.59-9.29-71.06-42.07-96.86-12.08-9.51-35.92-27.51-62.6-47.23,0,0,15.45-15.22,29.15-45.83,9.71-21.68,10.13-46.5-13.7-52-39.37-9.05-71.84,19.85-81.52,50.69-7.51,23.9-3.51,41.63,11.19,60.06,1.08,1.34,2.24,2.72,3.44,4.1-8.89,17.12-21.1,40.17-31.44,58-28.7,49.63-50.39,88.88-66.78,88.88-13.09,0-12.92-39.85-12.92-77.16,0-32.17,2.38-80.53,4.28-130.6.62-16.56-7.66-26-21.55-34.53-8.44-5.19-26.45-15.4-36.88-15.4-15.62,0-60.67,2.12-103.23,125.16-5.36,15.5-15.9,43.76-15.9,43.76l.9-147.95c0-3.47-1.84-6.82-6.08-9.12-7.17-3.89-26.33-11.85-43.36-11.85q-12.18,0-12.17,11.29l-1.48,231.47c0,17.59.46,38.11,2.2,47.08s4.54,16.29,8,20.64,7.49,7.65,14.11,9c6.17,1.27,39.93,5.6,41.69-7.29,2.1-15.45,2.18-32.17,19.91-94.5,27.6-97,63.58-144.38,80.5-161.2,3-2.94,6.34-3.11,6.17,1.7-.72,21.27-3.26,74.43-5,119.6C1518,464.83,1540,487.24,1571.41,487.24c24.06,0,58-23.89,94.32-84.35,22.66-37.68,44.67-74.63,60.48-101.25,11,10.19,23.38,21.16,35.73,32.87,28.72,27.24,38.14,53.11,31.89,77.66-4.78,18.76-22.8,38.1-54.87,19.31-9.34-5.49-13.33-9.73-22.73-15.91-5-3.32-12.75-4.31-17.38-.83-12,9-18.87,20.55-22.79,34.79-3.81,13.86,10.08,21.19,24.48,27.59,12.4,5.52,39,10.52,56,11.09,66.21,2.21,119.26-31.95,156.18-120.07,6.61,76.1,34.74,119.16,83.62,119.16,32.67,0,65.43-42.2,79.76-83.72,4.11,16.92,10.2,31.64,18.06,44.09,37.66,59.62,110.72,46.79,147.42-3.84,11.35-15.65,13.08-21.27,13.08-21.27,5.35,47.81,43.88,64.51,65.94,64.51,24.71,0,50.22-11.67,68.09-51.89a125.74,125.74,0,0,0,6.88,12.49c37.66,59.62,110.72,46.79,147.42-3.84,1.73-2.38,3.23-4.53,4.55-6.47l1.07,31.41-33.78,31c-56.56,51.85-99.57,91.2-102.74,137-4.06,58.42,43.35,80.13,79.22,83,38.1,3,70.72-18,90.77-47.43,17.63-25.9,29.18-81.65,28.33-136.71-.34-22-.89-50.08-1.33-80.13a641.61,641.61,0,0,0,62.9-86.35c22.48-37.2,46.56-87.14,58.9-126,0,0,20.92.18,43.26-1.28,7.14-.46,9.19,1,7.87,6.23-1.59,6.32-28.21,108.93-3.92,177.28,16.63,46.79,54.12,61.84,76.35,61.84,26,0,50.91-19.63,64.25-48.79a104,104,0,0,0,5.12,9.3c37.66,59.63,110.47,46.72,147.42-3.84a150.55,150.55,0,0,0,13.07-21.26c7.93,49.48,46.44,64.76,68.5,64.76,23,0,44.78-9.41,62.47-51.24.74,18.42,1.9,33.48,3.74,38.23,1.12,2.9,7.65,6.54,12.4,8.3,21,7.79,42.45,4.11,50.38,2.51,5.49-1.11,9.78-5.52,10.36-16.89,1.54-29.86.6-80,9.66-117.32,15.2-62.58,29.39-86.85,36.12-98.87,3.77-6.73,8-7.84,8.17-.72.32,14.42,1,56.76,6.93,113.65,4.32,41.84,10.1,66.57,14.54,74.39,12.68,22.38,28.34,23.44,41.08,23.44,8.11,0,25.07-2.23,23.56-16.48-.74-6.94.55-49.84,15.55-111.49,9.79-40.26,26.11-76.64,32-89.94,2.17-4.9,3.18-1,3.14-.28-1.24,27.72-4,118.41,7.28,168,15.33,67.19,59.65,74.71,75.1,74.71,33,0,59.94-25.07,69-91,2.19-15.87-1.06-28.13-10.76-28.13"/><g id="Icône"><path class="cls-2" d="M565.12,0c-150.3,0-194.26.16-202.8.86-30.84,2.57-50,7.43-70.94,17.84A143.48,143.48,0,0,0,250,49q-34.26,35.57-41.7,87.58c-2.43,16.84-3.14,20.27-3.29,106.28-.05,28.67,0,66.4,0,117,0,150.21.17,194.14.89,202.67,2.49,30,7.2,48.91,17.17,69.57,19,39.55,55.43,69.23,98.29,80.31,14.84,3.82,31.23,5.93,52.27,6.93,8.91.38,99.78.66,190.71.66s181.85-.11,190.54-.55c24.37-1.15,38.51-3.05,54.16-7.09a150.79,150.79,0,0,0,98.29-80.48c9.77-20.17,14.73-39.77,17-68.23.49-6.2.69-105.11.69-203.89s-.22-197.51-.71-203.72c-2.27-28.91-7.23-48.35-17.31-68.9a142.64,142.64,0,0,0-30.82-42.23C852.34,22.16,823.22,8.31,788.51,3.3,771.69.87,768.34.15,682.29,0Z"/><path class="cls-3" d="M565.12,0c-150.3,0-194.26.16-202.8.86-30.84,2.57-50,7.43-70.94,17.84A143.48,143.48,0,0,0,250,49q-34.26,35.57-41.7,87.58c-2.43,16.84-3.14,20.27-3.29,106.28-.05,28.67,0,66.4,0,117,0,150.21.17,194.14.89,202.67,2.49,30,7.2,48.91,17.17,69.57,19,39.55,55.43,69.23,98.29,80.31,14.84,3.82,31.23,5.93,52.27,6.93,8.91.38,99.78.66,190.71.66s181.85-.11,190.54-.55c24.37-1.15,38.51-3.05,54.16-7.09a150.79,150.79,0,0,0,98.29-80.48c9.77-20.17,14.73-39.77,17-68.23.49-6.2.69-105.11.69-203.89s-.22-197.51-.71-203.72c-2.27-28.91-7.23-48.35-17.31-68.9a142.64,142.64,0,0,0-30.82-42.23C852.34,22.16,823.22,8.31,788.51,3.3,771.69.87,768.34.15,682.29,0Z"/><path class="cls-4" d="M565.15,92.45c-72.71,0-81.83.32-110.39,1.62s-47.95,5.81-65,12.42a136.93,136.93,0,0,0-78.32,78.23c-6.64,17-11.15,36.46-12.44,64.93s-1.61,37.65-1.61,110.3.33,81.74,1.62,110.27,5.82,47.92,12.44,64.93a136.87,136.87,0,0,0,78.28,78.26c17,6.62,36.49,11.12,65,12.43s37.67,1.61,110.37,1.61,81.81-.31,110.36-1.61,48-5.81,65-12.43a137.1,137.1,0,0,0,78.29-78.25c6.58-17,11.09-36.46,12.43-64.93s1.62-37.63,1.62-110.28-.34-81.76-1.62-110.3-5.85-47.91-12.43-64.92a136.93,136.93,0,0,0-78.31-78.24c-17.06-6.61-36.53-11.12-65-12.42s-37.64-1.62-110.37-1.62Zm-24,48.21c7.13,0,15.08,0,24,0,71.47,0,79.94.25,108.17,1.53,26.1,1.2,40.27,5.55,49.7,9.22a88.59,88.59,0,0,1,50.8,50.77c3.66,9.41,8,23.57,9.22,49.65,1.28,28.2,1.56,36.67,1.56,108.06S784.32,439.75,783,468c-1.2,26.08-5.56,40.24-9.22,49.66A88.67,88.67,0,0,1,723,568.34c-9.42,3.68-23.6,8-49.7,9.22-28.22,1.28-36.7,1.56-108.17,1.56s-80-.28-108.18-1.56c-26.1-1.2-40.26-5.56-49.71-9.22a88.72,88.72,0,0,1-50.82-50.76c-3.66-9.41-8-23.57-9.21-49.65-1.29-28.2-1.54-36.67-1.54-108.11s.25-79.86,1.54-108.06c1.19-26.08,5.55-40.23,9.21-49.66a88.67,88.67,0,0,1,50.82-50.78c9.44-3.68,23.61-8,49.71-9.23,24.7-1.11,34.27-1.45,84.16-1.5ZM708,185.07a32.1,32.1,0,1,0,32.13,32.09A32.11,32.11,0,0,0,708,185.07ZM565.15,222.58A137.36,137.36,0,1,0,702.6,360,137.43,137.43,0,0,0,565.15,222.58Zm0,48.2A89.17,89.17,0,1,1,475.91,360a89.2,89.2,0,0,1,89.24-89.17Z"/></g></g></g></svg>