<svg xmlns="http://www.w3.org/2000/svg" xmlns:xlink="http://www.w3.org/1999/xlink" viewBox="0 0 3840 720"><defs><style>.cls-1{fill:url(#Dégradé_sans_nom_3);}.cls-2{fill:#fff;}.cls-3{fill:#111;}</style><linearGradient id="Dégradé_sans_nom_3" x1="952.84" y1="680" x2="952.84" y2="40" gradientUnits="userSpaceOnUse"><stop offset="0" stop-color="red"/><stop offset="1" stop-color="#f90"/></linearGradient></defs><title>Carte de réseau social yt</title><g id="Carte_de_réseau_social" data-name="Carte de réseau social"><g id="YouTube"><path class="cls-1" d="M1386.75,139.94a113.93,113.93,0,0,0-80.07-80.82C1236.08,40,952.84,40,952.84,40S669.61,40,599,59.12a113.93,113.93,0,0,0-80.07,80.82C500,211.21,500,360,500,360s0,148.79,18.94,220.06A113.93,113.93,0,0,0,599,660.88C669.61,680,952.84,680,952.84,680s283.24,0,353.84-19.12a113.93,113.93,0,0,0,80.07-80.82c18.94-71.27,18.94-220.06,18.94-220.06S1405.61,211.21,1386.75,139.94Z"/><path class="cls-2" d="M862.19,497.13,1097.48,360,862.19,222.89Z"/><g id="youtube-paths"><path class="cls-3" d="M1596.92,456.12,1495.22,85.39H1584l35.63,168.05q13.65,62.1,20.06,105.89h2.61q4.47-31.38,20-105.28l36.91-168.66h88.72L1685,456.12V634h-88.13V456.12Z"/><path class="cls-3" d="M1814.61,622.2q-26.83-18.29-38.24-56.9T1765,462.65V404.47q0-64.68,13-103.93c8.65-26.11,22.14-45.23,40.48-57.19s42.42-18,72.25-18c29.37,0,52.85,6.1,70.6,18.29s30.64,31.3,38.84,57.19,12.3,60.51,12.3,103.63v58.18q0,64.13-12,103t-38.84,56.9q-26.85,18-72.84,18C1857.19,640.56,1832.51,634.39,1814.61,622.2ZM1915,559.43c4.92-13.09,7.45-34.39,7.45-64V370.53c0-28.75-2.46-49.82-7.45-63.06s-13.72-20-26.25-20c-12.07,0-20.65,6.63-25.57,20s-7.45,34.31-7.45,63.06V495.39q0,44.48,7.15,64c4.77,13.1,13.35,19.65,25.87,19.65S1910,572.53,1915,559.43Z"/><path class="cls-3" d="M2301.08,634h-69.93L2223.4,585h-1.94q-28.52,55.54-85.52,55.54-39.46,0-58.3-26.11t-18.79-81.73V233.2h89.4V527.39q0,26.86,5.81,38.23c3.88,7.6,10.36,11.44,19.46,11.44a39.5,39.5,0,0,0,22.37-7.23,45,45,0,0,0,15.88-18.28V233.13h89.31Z"/><path class="cls-3" d="M2543.91,158h-88.72V634h-87.45V158H2279V85.45h264.89Z"/><path class="cls-3" d="M2759.52,634h-69.93L2681.83,585h-1.93q-28.53,55.54-85.52,55.54-39.48,0-58.3-26.11t-18.79-81.73V233.2h89.39V527.39q0,26.86,5.82,38.23c3.87,7.6,10.36,11.44,19.46,11.44a39.47,39.47,0,0,0,22.36-7.23,44.89,44.89,0,0,0,15.88-18.28V233.13h89.32Z"/><path class="cls-3" d="M3055.35,297.24q-8.16-37.94-26.24-54.94t-49.88-17a82,82,0,0,0-46,14.07,95.31,95.31,0,0,0-33,37h-.66V65.14h-86.12V634h73.81l9.1-37.93h1.94c6.93,13.54,17.29,24.15,31.09,32.06s29.15,11.74,46,11.74q45.29,0,66.72-42.15t21.4-131.78V402.45C3063.48,357.67,3060.72,322.53,3055.35,297.24Zm-81.93,163.53q0,43.8-3.58,68.64c-2.39,16.56-6.34,28.38-12,35.3s-13.2,10.46-22.67,10.46a40.74,40.74,0,0,1-20.43-5.27,39.21,39.21,0,0,1-15.2-15.65V326.74A56.53,56.53,0,0,1,2915.12,300c7.3-7,15.36-10.46,23.93-10.46,9.1,0,16.1,3.61,21,10.76s8.43,19.27,10.37,36.27,2.9,41.17,2.9,72.55v51.7Z"/><path class="cls-3" d="M3190.29,483.88q0,38.61,2.24,57.87c1.49,12.87,4.62,22.21,9.39,28.15s12.08,8.8,22,8.8c13.34,0,22.59-5.26,27.51-15.72s7.68-27.92,8.13-52.31l77.09,4.59a121,121,0,0,1,.66,14.38q0,55.53-30.11,83t-85.15,27.47q-66.09,0-92.59-41.85t-26.54-129.44v-70q0-90.21,27.51-131.78t94.23-41.54q46,0,70.61,17c16.4,11.37,27.95,29,34.66,53S3340,352.63,3340,394.92v68.64H3190.29ZM3201.63,295c-4.55,5.64-7.53,14.9-9.1,27.77s-2.24,32.36-2.24,58.55v28.75h65.39V381.3q0-38.61-2.61-58.55c-1.71-13.32-4.85-22.65-9.4-28.15s-11.55-8.2-21-8.2S3206.1,289.34,3201.63,295Z"/></g></g></g></svg>