<svg xmlns="http://www.w3.org/2000/svg" xmlns:xlink="http://www.w3.org/1999/xlink" viewBox="0 0 3840 720"><defs><style>.cls-1{fill:#1877f2;}.cls-2{fill:url(#Dégradé_sans_nom_4);}</style><linearGradient id="Dégradé_sans_nom_4" x1="1920" y1="640" x2="1920" y2="80" gradientUnits="userSpaceOnUse"><stop offset="0" stop-color="blue"/><stop offset="1" stop-color="#0080ff"/></linearGradient></defs><title>Carte de réseau social fb</title><g id="Carte_de_réseau_social" data-name="Carte de réseau social"><g id="Facebook"><path class="cls-1" d="M722.21,167.7c-33.44,0-43.11,15.1-43.11,48.42v55.26h89.19l-8.94,89.29H679.14v271h-107v-271H500V271.38h72.11V217.64C572.11,127.57,607.76,80,707.24,80a496.53,496.53,0,0,1,62.37,3.78v84Z"/><path class="cls-1" d="M775.7,440.15c0-100.65,46.82-176.46,144.91-176.46,53.5,0,86.17,28,101.8,62.82V271.38h102.53V631.64H1022.41V577.15c-14.87,34.83-48.3,62.07-101.8,62.07-98.09,0-144.91-75.7-144.91-176.45Zm107,24.24c0,53.71,19.3,89.29,69.09,89.29,43.87,0,66.15-32.54,66.15-84V433.51c0-51.45-22.28-84-66.15-84-49.79,0-69.09,35.57-69.09,89.29Z"/><path class="cls-1" d="M1347.87,263.8c41.58,0,81,9.1,102.53,24.21l-23.77,77.21a165.81,165.81,0,0,0-71.35-16.65c-58,0-83.15,34.05-83.15,92.35V462.1c0,58.3,25.26,92.35,83.15,92.35a165.81,165.81,0,0,0,71.35-16.65L1450.4,615c-21.55,15.14-60.92,24.24-102.53,24.24-125.6,0-182.81-68.88-182.81-179.38V443.18C1165.06,332.69,1222.27,263.8,1347.87,263.8Z"/><path class="cls-1" d="M1464.5,465.27V433.51c0-102.17,57.21-169.4,173.9-169.4,110,0,158.28,68.12,158.28,168v57.52H1571.46c2.25,49.2,23.81,71.15,83.16,71.15,40.16,0,82.5-8.33,113.72-21.95l19.58,74.64c-28.24,15.17-86.21,26.5-137.46,26.5C1515,640,1464.5,571.15,1464.5,465.27Zm107-46.93h129.31v-9.07c0-39.35-15.59-70.59-62.37-70.59-48.34,0-66.94,31.1-66.94,79.52Z"/><path class="cls-1" d="M2193.31,462.87c0,100.65-47.53,176.46-145.52,176.46-53.5,0-90.65-27.25-105.51-62.08v54.49h-101V90.48l107-9.88V321.29c15.59-31.77,49.79-57.53,99.58-57.53,98.09,0,145.53,75.7,145.53,176.46Zm-107-25c0-50.72-19.3-88.55-70.58-88.55-43.87,0-67.64,31.76-67.64,83.25v37.84c0,51.45,23.77,83.25,67.64,83.25,51.28,0,70.58-37.83,70.58-88.55Z"/><path class="cls-1" d="M2229.11,460.58V442.44c0-103.72,58-178.64,176.12-178.64s176.16,74.92,176.16,178.64v18.14c0,103.69-58,178.64-176.13,178.64S2229.11,564.27,2229.11,460.58Zm245.25-25.73c0-47.68-19.34-85.51-69.3-85.51s-69.13,37.83-69.13,85.51v33.32c0,47.68,19.34,85.51,69.13,85.51s69.3-37.83,69.3-85.51Z"/><path class="cls-1" d="M2617,460.58V442.44c0-103.72,58-178.64,176.12-178.64s176.13,74.92,176.13,178.64v18.14c0,103.69-58,178.64-176.13,178.64S2617,564.27,2617,460.58Zm245.25-25.73c0-47.68-19.33-85.51-69.13-85.51S2724,387.17,2724,434.85v33.32c0,47.68,19.3,85.51,69.09,85.51s69.13-37.83,69.13-85.51Z"/><path class="cls-1" d="M3116.34,443.18l105.51-171.8h113.68l-110.7,177.87L3340,631.64H3226.32l-110-176.46V631.64h-107V90.48l107-9.88Z"/><path class="cls-2" d="M722.21,167.7c-33.44,0-43.11,15.1-43.11,48.42v55.26h89.19l-8.94,89.29H679.14v271h-107v-271H500V271.38h72.11V217.64C572.11,127.57,607.76,80,707.24,80a496.53,496.53,0,0,1,62.37,3.78v84Z"/><path class="cls-2" d="M775.7,440.15c0-100.65,46.82-176.46,144.91-176.46,53.5,0,86.17,28,101.8,62.82V271.38h102.53V631.64H1022.41V577.15c-14.87,34.83-48.3,62.07-101.8,62.07-98.09,0-144.91-75.7-144.91-176.45Zm107,24.24c0,53.71,19.3,89.29,69.09,89.29,43.87,0,66.15-32.54,66.15-84V433.51c0-51.45-22.28-84-66.15-84-49.79,0-69.09,35.57-69.09,89.29Z"/><path class="cls-2" d="M1347.87,263.8c41.58,0,81,9.1,102.53,24.21l-23.77,77.21a165.81,165.81,0,0,0-71.35-16.65c-58,0-83.15,34.05-83.15,92.35V462.1c0,58.3,25.26,92.35,83.15,92.35a165.81,165.81,0,0,0,71.35-16.65L1450.4,615c-21.55,15.14-60.92,24.24-102.53,24.24-125.6,0-182.81-68.88-182.81-179.38V443.18C1165.06,332.69,1222.27,263.8,1347.87,263.8Z"/><path class="cls-2" d="M1464.5,465.27V433.51c0-102.17,57.21-169.4,173.9-169.4,110,0,158.28,68.12,158.28,168v57.52H1571.46c2.25,49.2,23.81,71.15,83.16,71.15,40.16,0,82.5-8.33,113.72-21.95l19.58,74.64c-28.24,15.17-86.21,26.5-137.46,26.5C1515,640,1464.5,571.15,1464.5,465.27Zm107-46.93h129.31v-9.07c0-39.35-15.59-70.59-62.37-70.59-48.34,0-66.94,31.1-66.94,79.52Z"/><path class="cls-2" d="M2193.31,462.87c0,100.65-47.53,176.46-145.52,176.46-53.5,0-90.65-27.25-105.51-62.08v54.49h-101V90.48l107-9.88V321.29c15.59-31.77,49.79-57.53,99.58-57.53,98.09,0,145.53,75.7,145.53,176.46Zm-107-25c0-50.72-19.3-88.55-70.58-88.55-43.87,0-67.64,31.76-67.64,83.25v37.84c0,51.45,23.77,83.25,67.64,83.25,51.28,0,70.58-37.83,70.58-88.55Z"/><path class="cls-2" d="M2229.11,460.58V442.44c0-103.72,58-178.64,176.12-178.64s176.16,74.92,176.16,178.64v18.14c0,103.69-58,178.64-176.13,178.64S2229.11,564.27,2229.11,460.58Zm245.25-25.73c0-47.68-19.34-85.51-69.3-85.51s-69.13,37.83-69.13,85.51v33.32c0,47.68,19.34,85.51,69.13,85.51s69.3-37.83,69.3-85.51Z"/><path class="cls-2" d="M2617,460.58V442.44c0-103.72,58-178.64,176.12-178.64s176.13,74.92,176.13,178.64v18.14c0,103.69-58,178.64-176.13,178.64S2617,564.27,2617,460.58Zm245.25-25.73c0-47.68-19.33-85.51-69.13-85.51S2724,387.17,2724,434.85v33.32c0,47.68,19.3,85.51,69.09,85.51s69.13-37.83,69.13-85.51Z"/><path class="cls-2" d="M3116.34,443.18l105.51-171.8h113.68l-110.7,177.87L3340,631.64H3226.32l-110-176.46V631.64h-107V90.48l107-9.88Z"/></g></g></svg>