<svg id="available-on-itchio-logo" xmlns="http://www.w3.org/2000/svg" viewBox="0 0 3840 1180"><defs><style>.cls-1,.cls-3{fill:#fff;}.cls-2,.cls-3{isolation:isolate;}.cls-3{font-size:281.31px;font-family:Arial-BoldMT, Arial;font-weight:700;}</style></defs><path d="M118.62,0H3721.38A118.54,118.54,0,0,1,3840,118.46v943.08A118.54,118.54,0,0,1,3721.38,1180H118.62A118.54,118.54,0,0,1,0,1061.54V118.46A118.54,118.54,0,0,1,118.62,0Z"/><path class="cls-1" d="M353.22,173.27c-41,24.28-121.69,116.89-122.46,141.18v40.21c0,51,47.7,95.76,91,95.76,52,0,95.31-43.05,95.31-94.13,0,51.08,41.86,94.13,93.87,94.13s92.49-43.05,92.49-94.13c0,51.08,44.5,94.13,96.5,94.13h.94c52,0,96.49-43.05,96.49-94.13,0,51.08,40.52,94.13,92.51,94.13s93.85-43.05,93.85-94.13c0,51.08,43.35,94.13,95.34,94.13,43.3,0,91-44.79,91-95.78V314.45c-.76-24.29-81.49-116.9-122.46-141.18C920.26,168.8,832,168,700.41,168s-311,2.05-347.21,5.23ZM602.79,426.41A107.37,107.37,0,0,1,584.5,450a109.21,109.21,0,0,1-152.57,0,101.84,101.84,0,0,1-17.48-23.07l0,0c-4.94,8.68-11.84,16.12-19,23.09a109.18,109.18,0,0,1-76.37,31,33,33,0,0,1-10.3-2q-5.4,57.53-6.57,115.33v.18L302,640.1c.78,91.22-9.05,295.65,40.26,345.89,76.43,17.79,217,25.9,358.13,26h0c141.07-.06,281.71-8.16,358.12-26,49.33-50.24,39.48-254.67,40.29-345.91l-.24-45.59v-.2Q1097.43,536.54,1092,479a32.94,32.94,0,0,1-10.29,2A109.16,109.16,0,0,1,1005.36,450c-7.12-7-14-14.39-19-23.07h0a101.62,101.62,0,0,1-17.48,23,109.2,109.2,0,0,1-152.56,0A106.87,106.87,0,0,1,798,426.39a107.39,107.39,0,0,1-18.12,23.54A109.14,109.14,0,0,1,703.54,481c-1,0-2.06,0-3.09-.08h0c-1,0-2.06.08-3.1.08a109.1,109.1,0,0,1-76.37-31.07,107.11,107.11,0,0,1-18.15-23.52ZM524.36,527.67v.06h.06c31.05.06,58.64,0,92.83,37.26a831.19,831.19,0,0,1,166.31,0c34.21-37.26,61.78-37.22,92.85-37.26h.06v0c14.67,0,73.35,0,114.26,114.72l43.94,157.39c32.55,117.07-10.44,119.93-64,120.05-79.51-3-123.52-60.63-123.52-118.29-44,7.21-95.36,10.81-146.7,10.81s-102.7-3.6-146.71-10.81c0,57.66-44,115.33-123.52,118.29-53.6-.12-96.57-3-64-120.07L410.1,642.41C451,527.69,509.69,527.69,524.36,527.69Zm176,90.18c-.08.1-83.71,76.78-98.73,104.07l54.76-2.2v47.7c0,2.23,22,1.31,44,.29,22,1,44,1.94,44-.29v-47.7l54.76,2.2c-15-27.27-98.73-104-98.73-104Z"/><path class="cls-1" d="M1487.7,984.48V602.83h128.93V984.48ZM1553,571.78q-32.64,0-50.5-16.27-17.09-16.31-17.09-43.45,0-25.59,17.09-43.44,17.86-17.82,50.48-17.82t49.72,17.82q17.86,17.82,17.86,43.44,0,27.15-17.84,43.45Q1585.57,571.79,1553,571.78ZM1809,992.24q-55.93,0-84.69-29.48Q1696.4,932.52,1696.4,879V698.24h-51.27V602.81h51.27V509.73h128.93v93.1h83.9v95.39h-83.9V860.36q0,17.85,7,25.6,7.77,7,23.3,7,21,0,45.84-18.62L1931,958.88a195.32,195.32,0,0,1-51.26,24.82q-28.74,8.56-70.67,8.56Zm317.14,0q-88.56,0-139.82-50.42-50.49-50.42-50.48-146.61,0-69.83,28.73-117.13,29.52-48.89,73.82-66,46.6-17.83,86.24-17.84,49.7,0,83.12,20.17,33.39,19.39,48.93,42.66Q2273,680.4,2280,693.58L2190.69,751q-12.39-25.61-27.18-40.35a48.64,48.64,0,0,0-35.69-14.73q-29.55,0-46.6,23.27t-17.09,70.59q0,51.19,20.2,75.25t57.47,24.05q29.53,0,48.93-10.87a176.48,176.48,0,0,0,38.07-27.93L2270,946.44q-18.66,15.49-55.17,31-36.51,14.71-88.55,14.71Zm187.61-7.76V466.29H2443.5V623.77q16.3-11.64,39.62-20.18,23.3-9.3,55.91-9.3,68.35,0,101.75,38.78Q2675,671.89,2675,742.49v242H2545.25V758q0-32.55-12.41-47.32-12.4-15.49-32.62-15.5a67.5,67.5,0,0,0-31.87,7.78,138.37,138.37,0,0,0-24.85,16.31V984.56H2313.78Zm460.78,7.76q-31.07,0-48.93-17.83t-17.85-45.77q0-27.93,17.85-46.54t48.93-18.61q29.52,0,47.39,18.61t17.88,46.54q0,27.93-17.84,45.76-17.07,17.83-47.39,17.84Zm95.4-7.76V602.83h128.93V984.48Zm65.21-412.62q-32.61,0-50.48-16.29-17.08-16.27-17.09-43.43,0-25.59,17.07-43.44,17.88-17.85,50.5-17.85t49.72,17.83q17.85,17.86,17.85,43.46,0,27.15-17.85,43.43-17.08,16.29-49.72,16.29Zm291.41,420.38q-45.06,0-80-14.73a183.06,183.06,0,0,1-59.8-41.9q-24.08-27.15-37.27-63.6Q3037,834.78,3037,791.32q0-64.37,28-112.47,28.74-47.33,71.46-65.93a226.71,226.71,0,0,1,90.11-18.63q66.78,0,110.26,31,44.26,31,62.17,77.56t17.85,88.46q0,43.42-13.22,80.67a177.81,177.81,0,0,1-37.31,63.6q-24.07,26.39-59.81,41.92-35,14.75-80,14.75Zm0-99.31q32.61,0,47.38-27.12,14.74-27.94,14.75-74.47,0-44.24-15.54-70.6t-46.6-26.38q-30.3,0-45.81,26.38t-15.51,70.6q0,46.53,14.76,74.45Q3195.6,893,3226.61,893Z"/><g class="cls-2"><text class="cls-3" transform="translate(1721.36 344.24)">available on</text></g></svg>