<svg id="yt-icon" xmlns="http://www.w3.org/2000/svg" viewBox="0 0 3200 2160"><defs><style>.cls-1{fill:#e1e1e1;}</style></defs><path class="cls-1" d="M3098.17,339.12C3062,205.2,2959,101.52,2822.09,65.88,2578.88,0,1598.36,0,1598.36,0S620,0,377.91,65.88C243.16,101.52,138,205.2,99.64,339.12,35,576.72,35,1077.84,35,1077.84S35,1582.2,99.64,1822C138,1952.64,243.16,2058.48,377.91,2095.2,620,2160,1598.36,2160,1598.36,2160h0s980.52,0,1223.73-64.8A391,391,0,0,0,3098.17,1822C3165,1582.2,3165,1077.84,3165,1077.84S3165,576.72,3098.17,339.12ZM1276.21,1539V621l809.48,459Z"/></svg>